<svg xmlns="http://www.w3.org/2000/svg" xmlns:xlink="http://www.w3.org/1999/xlink" width="500" zoomAndPan="magnify" viewBox="0 0 375 374.999991" height="500" preserveAspectRatio="xMidYMid meet" version="1.0"><defs><clipPath id="a580951196"><path d="M 55.5 37.503906 L 319.492188 37.503906 L 319.492188 337.5 L 55.5 337.5 Z M 55.5 37.503906 " clip-rule="nonzero"/></clipPath><clipPath id="88617e80b5"><path d="M 102 90 L 251.886719 90 L 251.886719 228.632812 L 102 228.632812 Z M 102 90 " clip-rule="nonzero"/></clipPath></defs><g clip-path="url(#a580951196)"><path fill="#261b0d" d="M 187.496094 48.421875 C 186.695312 48.421875 185.890625 48.628906 185.175781 49.042969 L 68.742188 116.261719 C 67.3125 117.089844 66.425781 118.628906 66.425781 120.28125 L 66.425781 254.726562 C 66.425781 256.378906 67.3125 257.917969 68.742188 258.742188 L 185.175781 325.964844 C 186.605469 326.792969 188.382812 326.792969 189.816406 325.964844 L 306.246094 258.742188 C 307.679688 257.917969 308.570312 256.378906 308.570312 254.726562 L 308.570312 120.28125 C 308.570312 118.628906 307.679688 117.089844 306.246094 116.261719 L 189.816406 49.042969 C 189.101562 48.628906 188.296875 48.421875 187.496094 48.421875 Z M 187.496094 337.503906 C 184.804688 337.503906 182.113281 336.8125 179.714844 335.425781 L 63.28125 268.203125 C 58.480469 265.433594 55.5 260.269531 55.5 254.726562 L 55.5 120.28125 C 55.5 114.738281 58.480469 109.574219 63.28125 106.804688 L 179.714844 39.582031 C 184.511719 36.808594 190.476562 36.808594 195.277344 39.582031 L 311.710938 106.804688 C 316.511719 109.574219 319.492188 114.738281 319.492188 120.28125 L 319.492188 254.726562 C 319.492188 260.269531 316.511719 265.433594 311.710938 268.207031 L 195.277344 335.425781 C 192.878906 336.8125 190.1875 337.503906 187.496094 337.503906 " fill-opacity="1" fill-rule="nonzero"/></g><path fill="#39b54a" d="M 182.804688 259.582031 C 178.503906 249.695312 172.113281 230.441406 178.390625 209.882812 C 188.6875 176.152344 229.085938 151.964844 277.703125 155.097656 C 284.160156 196.25 268.25 234.800781 238.273438 252 C 218.078125 263.585938 197.160156 262.234375 187.253906 260.851562 C 197.394531 253.171875 208.78125 243.304688 220.164062 230.808594 C 237.734375 211.523438 249.460938 192.386719 257.222656 177.121094 C 246.070312 192.660156 232.671875 209.445312 216.664062 226.597656 C 205.113281 238.972656 193.703125 249.929688 182.804688 259.582031 Z M 182.804688 259.582031 " fill-opacity="1" fill-rule="nonzero"/><path fill="#39b54a" d="M 169.839844 260.65625 C 162.253906 262.949219 147.652344 265.964844 133.175781 259.640625 C 109.425781 249.261719 95.210938 217.757812 101.640625 182.589844 C 132.234375 181.394531 159.027344 196.273438 169.03125 219.585938 C 175.769531 235.289062 173 250.421875 171.148438 257.523438 C 166.402344 249.476562 160.167969 240.335938 152.015625 230.976562 C 139.433594 216.53125 126.460938 206.351562 115.972656 199.394531 C 126.367188 208.84375 137.484375 220.039062 148.640625 233.167969 C 156.695312 242.644531 163.722656 251.890625 169.839844 260.65625 Z M 169.839844 260.65625 " fill-opacity="1" fill-rule="nonzero"/><g clip-path="url(#88617e80b5)"><path fill="#000000" d="M 249.214844 181.71875 C 248.871094 181.964844 248.582031 182.316406 248.328125 182.65625 C 247.109375 184.28125 245.632812 185.273438 243.480469 184.984375 C 243.050781 184.925781 242.519531 185.15625 242.121094 185.398438 C 240.871094 186.167969 239.589844 186.871094 238.105469 186.976562 C 237.292969 187.03125 236.355469 187.066406 235.652344 186.730469 C 234.722656 186.289062 233.949219 186.257812 232.972656 186.496094 C 230.464844 187.097656 228.851562 186.328125 227.570312 183.960938 C 227.128906 183.136719 226.683594 182.632812 225.695312 182.335938 C 223.128906 181.550781 221.984375 179.253906 222.648438 176.621094 C 223.289062 174.09375 224.644531 171.898438 226.015625 169.71875 C 226.222656 169.386719 226.457031 169.078125 226.746094 168.671875 C 225.609375 166.792969 225.761719 165.875 227.40625 164.597656 C 228.015625 164.125 228.691406 163.738281 229.484375 163.21875 C 228.691406 160.65625 227.925781 158.105469 227.121094 155.558594 C 226.6875 154.1875 225.75 153.285156 224.378906 152.828125 C 223.019531 152.375 221.65625 151.90625 220.136719 151.394531 C 216.28125 159.957031 210.738281 166.867188 202.527344 171.476562 C 202.605469 177.496094 203.191406 183.425781 204.285156 189.292969 C 205.398438 189.496094 206.460938 189.582031 207.457031 189.894531 C 208.347656 190.171875 209.246094 190.582031 209.996094 191.125 C 212.09375 192.640625 212.515625 194.265625 211.742188 197.207031 C 217.34375 202.476562 219.578125 209.378906 220.980469 216.667969 C 221.378906 218.746094 220.847656 220.4375 218.945312 221.539062 C 217.0625 222.625 215.242188 223.878906 213.257812 224.714844 C 206.949219 227.375 200.332031 228.628906 193.480469 228.410156 C 189.515625 228.28125 185.785156 227.191406 182.292969 225.257812 C 180.722656 224.386719 179.933594 223.308594 180.003906 221.390625 C 180.257812 214.847656 183.171875 209.875 188.53125 206.25 C 189.039062 205.90625 189.570312 205.59375 189.945312 205.355469 C 190.546875 203.417969 191.105469 201.613281 191.695312 199.710938 C 189.539062 196.441406 191.210938 192.648438 195.03125 190.898438 C 194.484375 185.671875 193.941406 180.457031 193.371094 175.015625 C 186.183594 176.921875 178.894531 177.066406 171.390625 175.640625 C 171.011719 179.90625 170.714844 183.996094 170.703125 188.179688 C 171.253906 188.3125 171.675781 188.445312 172.101562 188.523438 C 175.050781 189.019531 177.792969 192.105469 176.683594 195.621094 C 176.457031 196.332031 176.574219 196.863281 176.867188 197.507812 C 179.019531 202.304688 179.773438 207.382812 179.320312 212.566406 C 179.125 214.800781 177.636719 216.542969 175.621094 217.664062 C 173.261719 218.976562 170.703125 219.785156 168.085938 220.386719 C 162.738281 221.617188 157.34375 221.660156 151.914062 221.164062 C 148.554688 220.859375 145.269531 220.246094 142.113281 219.070312 C 137.671875 217.421875 137.414062 216.238281 138.082031 212.144531 C 138.753906 208.074219 140.933594 204.914062 144.3125 202.582031 C 147.375 200.464844 150.796875 199.378906 154.398438 199.226562 C 155.277344 197.894531 156.097656 196.640625 157.03125 195.226562 C 156.414062 193.675781 156.308594 191.960938 157.480469 190.351562 C 158.585938 188.839844 160.113281 187.980469 161.914062 187.351562 C 161.800781 182.496094 161.921875 177.640625 163.046875 172.730469 C 155.546875 168.339844 151.035156 161.621094 148.28125 153.394531 C 147.867188 153.648438 147.558594 153.855469 147.238281 154.03125 C 145.320312 155.050781 143.441406 156.160156 141.464844 157.058594 C 139.453125 157.976562 137.34375 157.957031 135.289062 157.042969 C 132.445312 155.773438 129.59375 154.507812 126.636719 153.199219 C 126.292969 153.527344 125.859375 153.949219 125.414062 154.363281 C 124.105469 155.582031 122.585938 156.363281 120.78125 156.476562 C 119.695312 156.546875 118.609375 156.441406 117.910156 155.46875 C 117.496094 154.882812 117 154.902344 116.441406 155.023438 C 112.976562 155.746094 109.78125 154.875 106.730469 153.328125 C 105.757812 152.835938 104.828125 152.113281 104.113281 151.292969 C 102.667969 149.648438 102.023438 147.976562 103.609375 145.679688 C 102.367188 143.023438 102.5 141.996094 104.429688 140.058594 C 103.933594 138.851562 103.660156 137.550781 104.359375 136.265625 C 105.074219 134.945312 106.425781 134.660156 107.679688 134.324219 C 108.890625 130.703125 111.828125 130.734375 114.472656 130.851562 C 115.734375 129.449219 116.78125 128.152344 117.976562 127.011719 C 118.898438 126.136719 120.128906 125.863281 121.421875 126.078125 C 122.875 126.316406 123.757812 127.234375 123.695312 128.703125 C 123.65625 129.640625 123.433594 130.585938 123.152344 131.480469 C 122.691406 132.917969 122.96875 134.054688 124.035156 135.140625 C 124.84375 135.964844 125.449219 136.980469 126.28125 138.089844 C 126.351562 138.082031 126.667969 138.039062 126.980469 138.039062 C 129.027344 138.019531 130.851562 139.574219 131.054688 141.738281 C 131.164062 142.9375 130.9375 144.171875 130.789062 145.382812 C 130.714844 145.980469 130.460938 146.554688 130.25 147.261719 C 132.421875 148.546875 134.65625 149.671875 137.101562 150.238281 C 137.921875 150.429688 138.949219 150.332031 139.710938 149.992188 C 141.945312 148.984375 144.085938 147.785156 146.273438 146.6875 C 146.984375 146.335938 146.902344 145.75 146.917969 145.125 C 146.972656 142.667969 146.917969 140.203125 147.167969 137.761719 C 148 129.535156 150.855469 122.015625 155.507812 115.199219 C 162.09375 105.550781 170.734375 98.269531 181.375 93.480469 C 192.753906 88.367188 202.992188 90.566406 211.984375 98.882812 C 217.910156 104.367188 221.390625 111.292969 223.019531 119.171875 C 224.726562 127.40625 224.507812 135.609375 222.578125 143.78125 C 222.503906 144.101562 222.417969 144.425781 222.359375 144.753906 C 222.34375 144.855469 222.394531 144.96875 222.433594 145.195312 C 223.417969 145.539062 224.472656 145.875 225.5 146.277344 C 226.539062 146.683594 227.554688 147.15625 228.582031 147.59375 C 231.640625 148.910156 233.660156 151.214844 234.742188 154.3125 C 235.527344 156.570312 236.144531 158.890625 236.90625 161.417969 C 239.035156 161.6875 241.304688 162.296875 241.828125 165.1875 C 245.046875 166.507812 247.484375 168.757812 249.476562 171.53125 C 250.472656 172.914062 251.136719 174.445312 251.410156 176.125 C 251.789062 178.421875 251.160156 180.324219 249.214844 181.71875 Z M 249.214844 181.71875 " fill-opacity="1" fill-rule="nonzero"/></g><path fill="#eda861" d="M 150.324219 154.382812 C 149.261719 151.273438 148.664062 147.992188 148.519531 144.546875 C 148.136719 135.476562 150.34375 127.011719 154.914062 119.234375 C 161.609375 107.828125 171.171875 99.585938 183.332031 94.433594 C 191.125 91.132812 198.703125 91.863281 205.953125 96.222656 C 206.765625 96.710938 207.457031 97.289062 208.058594 97.976562 C 199.601562 94.878906 190.058594 94.675781 182.003906 98.292969 C 171.984375 102.753906 164.109375 110.542969 158.710938 119.925781 C 157.867188 120.433594 157.039062 121.003906 156.234375 121.652344 C 152.542969 124.601562 150.625 128.527344 150.46875 133.28125 C 150.394531 135.492188 150.753906 137.59375 151.46875 139.503906 C 150.503906 144.410156 150.117188 149.429688 150.324219 154.382812 Z M 150.324219 154.382812 " fill-opacity="1" fill-rule="nonzero"/><path fill="#ec9b5e" d="M 214.648438 113.535156 C 213.367188 108.542969 211.683594 103.703125 208.992188 99.257812 C 208.710938 98.789062 208.398438 98.363281 208.058594 97.972656 C 199.601562 94.871094 190.058594 94.667969 182.003906 98.289062 C 171.984375 102.75 164.109375 110.535156 158.710938 119.921875 C 162.699219 117.53125 167.121094 116.699219 171.941406 117.75 C 176.246094 118.691406 179.402344 121.15625 181.117188 125.3125 C 181.199219 125.5 181.324219 125.679688 181.589844 126.140625 C 181.949219 125.664062 182.179688 125.289062 182.472656 124.96875 C 188.554688 118.320312 198.695312 118.015625 205.125 121.75 C 209.328125 124.191406 211.355469 128.039062 211.925781 132.714844 C 212.238281 135.289062 211.988281 137.851562 211.179688 140.335938 C 209.035156 146.917969 202.851562 151.496094 195.867188 151.605469 C 193.75 151.640625 191.59375 151.773438 189.519531 151.433594 C 184.777344 150.660156 181.417969 147.894531 179.328125 143.578125 C 179.183594 143.277344 179.019531 142.984375 178.867188 142.6875 C 178.84375 142.648438 178.773438 142.636719 178.667969 142.585938 C 178.570312 142.660156 178.425781 142.730469 178.347656 142.839844 C 175.488281 146.808594 171.441406 148.535156 166.722656 148.917969 C 164.824219 149.066406 162.9375 148.917969 161.078125 148.386719 C 156.53125 147.09375 153.082031 143.78125 151.46875 139.484375 C 150.507812 144.402344 150.121094 149.417969 150.332031 154.375 C 151.558594 157.976562 153.402344 161.347656 155.878906 164.484375 C 159.289062 168.804688 163.605469 171.824219 168.875 173.527344 C 172.441406 174.679688 176.105469 174.824219 179.800781 175.160156 C 181.847656 174.953125 183.9375 174.921875 185.949219 174.503906 C 190.078125 173.636719 193.667969 171.558594 196.796875 168.78125 C 205.207031 161.3125 210.730469 151.980469 214.039062 141.316406 C 216.871094 132.140625 217.035156 122.851562 214.648438 113.535156 Z M 179.777344 103.5 C 177.851562 104.832031 175.949219 106.242188 174.230469 107.824219 C 172.523438 109.394531 171.054688 111.222656 169.476562 112.949219 C 169.054688 112.332031 169.585938 111.984375 169.84375 111.613281 C 172.429688 107.957031 175.75 105.070312 179.5 102.667969 C 180.953125 101.738281 182.507812 100.953125 184.03125 100.128906 C 184.492188 99.882812 185.007812 99.730469 185.496094 99.535156 C 185.554688 99.648438 185.613281 99.761719 185.671875 99.875 C 183.703125 101.074219 181.671875 102.191406 179.777344 103.5 Z M 184.054688 113.636719 C 183.910156 112.609375 183.96875 112.46875 185.894531 109.835938 C 186.75 108.671875 187.558594 107.449219 188.71875 106.578125 C 188.804688 106.652344 188.886719 106.726562 188.972656 106.800781 C 187.34375 109.058594 185.714844 111.320312 184.054688 113.636719 Z M 199.175781 115.292969 C 198.882812 114.417969 198.875 114.414062 199.585938 112.808594 C 199.945312 112 200.3125 111.195312 200.71875 110.402344 C 201.132812 109.601562 201.601562 108.828125 202.050781 108.042969 C 202.171875 109.4375 200.277344 113.855469 199.175781 115.292969 Z M 158.578125 150.34375 C 158.917969 153.878906 158.554688 157.503906 159.929688 160.921875 C 158.058594 159.378906 157.238281 153.015625 158.578125 150.34375 Z M 174.394531 163.589844 C 173.140625 163.945312 171.941406 163.734375 171.035156 162.6875 C 169.960938 161.453125 170.359375 160.207031 171.183594 158.992188 C 169.742188 157.804688 169.007812 156.464844 169.828125 154.6875 C 170.394531 153.453125 171.652344 152.605469 172.886719 152.742188 C 173.855469 152.851562 174.675781 153.246094 174.976562 154.640625 C 174.457031 154.429688 174.132812 154.332031 173.84375 154.175781 C 172.878906 153.636719 172.140625 153.648438 171.378906 154.253906 C 170.6875 154.808594 170.324219 155.867188 170.558594 156.644531 C 170.84375 157.574219 171.449219 158 172.570312 158.082031 C 173.058594 158.117188 173.550781 158.175781 174.035156 158.230469 C 174.070312 158.238281 174.09375 158.320312 174.15625 158.410156 C 174.074219 159.058594 173.488281 158.984375 173.046875 159.113281 C 171.808594 159.496094 171.144531 160.402344 171.378906 161.40625 C 171.605469 162.375 172.707031 162.988281 173.929688 162.722656 C 174.457031 162.605469 174.941406 162.289062 175.4375 162.046875 C 175.753906 161.890625 176.050781 161.6875 176.578125 161.371094 C 176.371094 162.925781 175.363281 163.304688 174.394531 163.589844 Z M 184.753906 164.972656 C 184.9375 163.875 188.585938 156.863281 189.515625 155.824219 C 189.53125 157.40625 186.207031 163.789062 184.753906 164.972656 Z M 221.078125 143.242188 C 220.964844 143.714844 220.800781 144.183594 220.652344 144.679688 C 220 144.644531 219.445312 144.652344 218.902344 144.578125 C 217.472656 144.367188 216.566406 145.066406 215.917969 146.246094 C 215.785156 146.488281 215.652344 146.742188 215.554688 147 C 214.582031 149.539062 215.042969 150.386719 217.679688 150.949219 C 217.882812 150.988281 218.078125 151.082031 218.28125 151.148438 C 214.125 162.097656 203.597656 171.773438 191.117188 173.71875 C 191.597656 173.394531 191.890625 173.15625 192.214844 172.984375 C 196.144531 170.933594 199.390625 168.03125 202.230469 164.683594 C 210.160156 155.351562 215.332031 144.714844 216.859375 132.484375 C 217.765625 125.234375 216.953125 118.097656 214.867188 111.09375 C 213.730469 107.285156 212.382812 103.5625 210.449219 100.070312 C 210.539062 99.984375 210.632812 99.898438 210.730469 99.804688 C 211.675781 100.816406 212.667969 101.785156 213.554688 102.84375 C 218.285156 108.480469 220.917969 115.039062 222.015625 122.261719 C 223.070312 129.320312 222.742188 136.3125 221.078125 143.242188 Z M 221.078125 143.242188 " fill-opacity="1" fill-rule="nonzero"/><path fill="#3b464e" d="M 201.269531 172.238281 C 201.292969 179.171875 202.1875 185.855469 203.359375 192.433594 C 201.304688 193.914062 199.113281 194.390625 197.324219 193.8125 C 196.398438 190.414062 194.839844 177.628906 195.003906 174.652344 C 197.015625 173.878906 199.070312 173.089844 201.269531 172.238281 Z M 164.152344 173.855469 C 164.078125 174.179688 164.019531 174.507812 163.976562 174.835938 C 163.304688 179.609375 163.132812 184.394531 163.476562 189.203125 C 163.601562 190.886719 163.988281 191.503906 165.625 191.800781 C 166.871094 192.023438 168.160156 192.144531 169.429688 191.414062 C 168.980469 186.085938 169.644531 180.828125 170.121094 175.570312 C 168.140625 174.867188 166.3125 174.214844 164.390625 173.53125 C 164.273438 173.683594 164.171875 173.757812 164.152344 173.855469 Z M 232.929688 154.132812 C 232.015625 151.710938 230.238281 150.078125 227.894531 149.003906 C 225.195312 147.769531 222.417969 146.769531 219.519531 146.125 C 217.800781 145.738281 217.199219 146.046875 216.675781 147.722656 C 216.519531 148.222656 216.457031 148.761719 216.363281 149.246094 C 218.515625 149.742188 220.460938 150.234375 222.429688 150.636719 C 226.378906 151.4375 228.679688 153.8125 229.472656 157.746094 C 229.804688 159.410156 230.277344 161.042969 230.695312 162.707031 C 232.195312 162.3125 233.644531 161.933594 235.445312 161.457031 C 234.597656 158.972656 233.828125 156.53125 232.929688 154.132812 Z M 146.070312 148.519531 C 144.609375 149.328125 143.167969 150.179688 141.671875 150.925781 C 139.339844 152.085938 136.976562 152.207031 134.597656 150.996094 C 133.304688 150.335938 131.996094 149.71875 130.691406 149.085938 C 130.355469 148.921875 130.03125 148.75 129.675781 148.570312 C 128.988281 149.703125 128.351562 150.746094 127.6875 151.835938 C 127.949219 152.027344 128.144531 152.234375 128.394531 152.339844 C 131.09375 153.535156 133.789062 154.757812 136.519531 155.878906 C 137.800781 156.402344 139.199219 156.375 140.449219 155.800781 C 142.972656 154.652344 145.441406 153.378906 147.957031 152.144531 C 147.671875 150.621094 147.421875 149.320312 147.144531 147.882812 C 146.71875 148.136719 146.398438 148.339844 146.070312 148.519531 Z M 146.070312 148.519531 " fill-opacity="1" fill-rule="nonzero"/><path fill="#ffffff" d="M 191.464844 204.539062 C 192.035156 203.117188 192.46875 202.042969 192.914062 200.949219 C 194.042969 200.988281 195.128906 201.855469 196.273438 200.722656 C 195.753906 200.441406 195.355469 200.167969 194.917969 200 C 191.113281 198.550781 191.8125 195.34375 193.773438 193.359375 C 194.011719 193.121094 194.269531 192.90625 194.542969 192.710938 C 194.765625 192.550781 195.019531 192.441406 195.390625 192.234375 C 195.5625 192.683594 195.742188 193.058594 195.851562 193.457031 C 196.265625 194.945312 196.734375 195.453125 198.265625 195.503906 C 200.199219 195.574219 202.027344 195.078125 203.660156 194.003906 C 204.25 193.617188 204.601562 193.070312 204.5625 192.3125 C 204.539062 191.878906 204.554688 191.441406 204.554688 190.886719 C 206.484375 190.980469 208.152344 191.460938 209.496094 192.742188 C 210.859375 194.039062 210.980469 195.367188 209.898438 196.941406 C 209.402344 197.664062 208.808594 198.320312 208.207031 199.070312 C 209.496094 200.128906 210.019531 198.8125 211.023438 198.363281 C 211.839844 199.296875 212.796875 200.226562 213.558594 201.300781 C 217.023438 206.199219 218.753906 211.757812 219.664062 217.621094 C 219.820312 218.609375 219.53125 219.230469 218.703125 219.871094 C 216.457031 221.585938 214.027344 222.914062 211.386719 223.882812 C 205.132812 226.1875 198.703125 227.371094 192.011719 226.839844 C 188.503906 226.5625 185.273438 225.402344 182.21875 223.675781 C 181.203125 223.105469 180.863281 222.347656 181.011719 221.199219 C 181.839844 214.789062 184.910156 209.859375 190.621094 206.726562 C 194.289062 204.714844 198.253906 203.878906 202.425781 204.3125 C 205.28125 204.613281 207.816406 205.691406 209.824219 207.832031 C 210.308594 208.351562 210.816406 208.859375 211.597656 209.667969 C 211.648438 208.9375 211.773438 208.570312 211.683594 208.277344 C 211.300781 207.054688 210.429688 206.175781 209.425781 205.4375 C 207.015625 203.65625 204.265625 202.824219 201.300781 202.691406 C 198.585938 202.570312 195.96875 203.078125 193.402344 203.941406 C 192.902344 204.105469 192.371094 204.253906 191.464844 204.539062 Z M 143.296875 218.082031 C 149.4375 220.144531 155.777344 220.460938 162.167969 220.003906 C 166.191406 219.71875 170.105469 218.824219 173.816406 217.148438 C 175.277344 216.492188 176.539062 215.601562 177.519531 214.355469 C 177.832031 213.957031 178.09375 213.367188 178.070312 212.890625 C 177.902344 209.882812 177.757812 206.871094 177.382812 203.886719 C 177.132812 201.886719 176.570312 199.914062 175.597656 198.101562 C 174.628906 198.585938 173.890625 199.683594 172.691406 198.652344 C 173.488281 197.703125 174.328125 196.882812 174.933594 195.921875 C 175.628906 194.824219 175.652344 193.578125 175.042969 192.394531 C 174.191406 190.726562 172.765625 189.929688 170.878906 189.671875 C 170.835938 190.144531 170.808594 190.476562 170.773438 190.808594 C 170.617188 192.433594 170.046875 193.085938 168.390625 193.25 C 167.402344 193.347656 166.371094 193.328125 165.394531 193.167969 C 163.847656 192.914062 162.746094 192.046875 162.359375 190.433594 C 162.242188 189.945312 162.066406 189.484375 161.886719 188.925781 C 161.367188 189.171875 160.898438 189.351562 160.484375 189.613281 C 157.515625 191.429688 157.3125 193.746094 159.898438 196.070312 C 160.199219 196.34375 160.460938 196.660156 160.800781 197.023438 C 159.589844 197.410156 159.589844 197.410156 157.921875 196.609375 C 157.324219 197.402344 156.714844 198.21875 156.003906 199.171875 C 156.507812 199.246094 156.71875 199.285156 156.9375 199.304688 C 161.390625 199.65625 165.257812 201.367188 168.492188 204.421875 C 169.378906 205.253906 170.082031 206.285156 170.808594 207.269531 C 170.980469 207.503906 170.914062 207.914062 171 208.636719 C 170.457031 208.15625 170.214844 207.953125 169.984375 207.742188 C 168.875 206.71875 167.8125 205.644531 166.664062 204.671875 C 160.617188 199.523438 151.324219 199.367188 144.863281 204.023438 C 140.8125 206.945312 138.914062 210.992188 139.128906 216.316406 C 140.542969 216.921875 141.886719 217.605469 143.296875 218.082031 Z M 239.207031 185.21875 C 240.097656 184.902344 240.90625 184.371094 241.777344 184.019531 C 242.3125 183.800781 242.941406 183.5625 243.484375 183.648438 C 244.875 183.863281 245.867188 183.285156 246.738281 182.339844 C 247.34375 181.6875 247.929688 181.011719 248.539062 180.371094 C 249.757812 179.097656 250.273438 177.613281 249.6875 175.917969 C 249.296875 174.769531 248.863281 173.578125 248.1875 172.582031 C 246.445312 169.988281 244.230469 167.886719 241.285156 166.671875 C 240.664062 166.410156 240.253906 166.046875 240.222656 165.324219 C 240.183594 164.199219 239.4375 163.632812 238.480469 163.324219 C 237.960938 163.148438 237.390625 163.035156 236.847656 163.046875 C 233.8125 163.085938 231.03125 164.003906 228.472656 165.613281 C 228.191406 165.792969 227.925781 166.011719 227.710938 166.261719 C 227.238281 166.808594 227.179688 167.34375 227.855469 167.8125 C 228.0625 167.957031 228.246094 168.136719 228.496094 168.339844 C 228.191406 168.800781 227.90625 169.144531 227.710938 169.53125 C 226.554688 171.820312 225.28125 174.058594 224.324219 176.429688 C 223.484375 178.496094 224.015625 179.777344 225.949219 180.742188 C 227.261719 181.394531 228.132812 182.269531 228.84375 183.539062 C 229.847656 185.339844 231.128906 185.695312 233.117188 185.054688 C 233.644531 184.886719 234.15625 184.6875 234.734375 184.488281 C 236.039062 185.96875 237.621094 185.785156 239.207031 185.21875 Z M 231.207031 167.230469 C 231.75 166.175781 232.761719 166.15625 233.585938 165.902344 C 235.808594 165.214844 237.171875 165.152344 238.527344 165.722656 C 235.917969 166.261719 233.636719 166.726562 231.207031 167.230469 Z M 242.066406 179.609375 C 242.097656 179.714844 241.667969 180.125 241.457031 180.117188 C 241.226562 180.113281 240.859375 179.8125 240.824219 179.59375 C 240.785156 179.375 241.082031 179.097656 241.34375 178.652344 C 241.679688 179.066406 241.960938 179.304688 242.066406 179.609375 Z M 234.675781 181.332031 C 234.457031 181.285156 234.238281 180.945312 234.152344 180.691406 C 234.121094 180.589844 234.5 180.222656 234.648438 180.238281 C 234.902344 180.273438 235.121094 180.527344 235.507812 180.789062 C 235.132812 181.054688 234.867188 181.371094 234.675781 181.332031 Z M 245.996094 177.960938 C 245.863281 177.984375 245.539062 177.683594 245.554688 177.589844 C 245.609375 177.371094 245.78125 177.070312 245.964844 177.019531 C 246.128906 176.976562 246.363281 177.230469 246.722656 177.453125 C 246.386719 177.699219 246.203125 177.917969 245.996094 177.960938 Z M 125.425781 141.496094 C 125.339844 141.097656 125.148438 140.6875 125.191406 140.300781 C 125.324219 139.066406 124.804688 138.148438 123.976562 137.308594 C 123.390625 136.714844 122.835938 136.085938 122.292969 135.445312 C 121.386719 134.390625 121.148438 133.175781 121.519531 131.839844 C 121.738281 131.03125 121.996094 130.234375 122.171875 129.414062 C 122.488281 127.914062 121.738281 127.164062 120.226562 127.476562 C 119.753906 127.574219 119.28125 127.820312 118.875 128.09375 C 117.542969 128.988281 116.617188 130.207031 116.035156 131.742188 C 117.0625 132.871094 117.566406 134.089844 117.097656 135.609375 C 116.617188 137.160156 115.332031 137.792969 114.296875 138.257812 C 113.929688 139.617188 113.628906 140.722656 113.277344 142.007812 C 114.453125 143.636719 113.941406 145.234375 112.398438 146.601562 C 114.199219 149.085938 114.292969 150.609375 112.769531 151.648438 C 111.582031 152.453125 109.667969 152.195312 109.011719 151.070312 C 109.589844 151.035156 110.144531 151.039062 110.679688 150.960938 C 112.308594 150.707031 112.742188 149.679688 111.792969 148.351562 C 110.644531 146.746094 107.824219 145.753906 105.925781 146.289062 C 104.527344 146.6875 103.980469 147.820312 104.585938 149.148438 C 105.109375 150.300781 105.992188 151.144531 107.089844 151.769531 C 109.460938 153.117188 112.042969 153.777344 114.742188 153.957031 C 116.226562 154.054688 117.628906 153.875 118.761719 152.730469 C 119.027344 152.460938 119.480469 152.386719 119.910156 152.195312 C 120.253906 153.476562 118.996094 153.757812 118.71875 154.734375 C 119.175781 154.851562 119.578125 155.015625 119.996094 155.050781 C 121.933594 155.207031 123.476562 154.347656 124.75 153.003906 C 126.859375 150.785156 128.421875 148.21875 129.304688 145.28125 C 129.558594 144.4375 129.703125 143.519531 129.679688 142.644531 C 129.632812 140.714844 128.570312 139.707031 126.683594 139.625 C 126.460938 140.257812 126.234375 140.894531 126.003906 141.527344 C 125.8125 141.523438 125.617188 141.507812 125.425781 141.496094 Z M 115.296875 143.273438 C 114.410156 141.765625 114.664062 139.890625 115.875 139.066406 C 115.945312 140.148438 115.921875 141.253906 116.097656 142.3125 C 116.3125 143.566406 117.75 143.40625 118.597656 144.039062 C 117.238281 144.820312 116.011719 144.488281 115.296875 143.273438 Z M 124.835938 144.5 C 125.304688 145.910156 123.347656 149.769531 121.414062 150.875 C 122.546875 148.761719 123.683594 146.644531 124.835938 144.5 Z M 110.316406 145.308594 C 111.019531 145.605469 111.492188 145.21875 111.925781 144.777344 C 112.417969 144.28125 112.515625 143.625 112.089844 143.105469 C 111.609375 142.523438 111.039062 141.933594 110.375 141.605469 C 109.105469 140.976562 107.703125 140.898438 106.292969 141.136719 C 104.09375 141.5 103.523438 142.898438 104.828125 144.917969 C 106.679688 144.367188 108.527344 144.554688 110.316406 145.308594 Z M 112.007812 140.675781 C 112.964844 138.164062 112.152344 136.433594 109.859375 135.882812 C 109.171875 135.722656 108.417969 135.683594 107.71875 135.769531 C 105.394531 136.0625 104.753906 137.265625 105.710938 139.695312 C 107.957031 139.351562 110.054688 139.648438 112.007812 140.675781 Z M 113.519531 136.820312 C 113.917969 136.652344 114.183594 136.570312 114.417969 136.4375 C 115.320312 135.9375 115.832031 135.203125 115.695312 134.128906 C 115.570312 133.101562 114.8125 132.636719 113.953125 132.335938 C 112.382812 131.785156 110.132812 132.566406 108.976562 134.222656 C 110.871094 134.667969 112.539062 135.214844 113.519531 136.820312 Z M 197.84375 149.96875 C 206.050781 148.519531 211.128906 142.03125 210.621094 133.707031 C 210.25 127.632812 206.671875 123.164062 200.832031 121.523438 C 197.589844 120.617188 194.316406 120.578125 191.0625 121.445312 C 182.378906 123.753906 177.332031 133.078125 180.125 141.617188 C 181.988281 147.304688 187.007812 150.601562 193.527344 150.5 C 194.960938 150.320312 196.417969 150.214844 197.84375 149.96875 Z M 196.761719 139.902344 C 196.128906 140.777344 195.117188 140.546875 194.703125 139.53125 C 194.332031 138.625 194.742188 136.773438 195.464844 136.117188 C 195.957031 135.664062 196.507812 135.609375 196.914062 136.121094 C 197.265625 136.570312 197.4375 137.152344 197.722656 137.742188 C 197.386719 138.527344 197.195312 139.300781 196.761719 139.902344 Z M 159.535156 121.050781 C 154.289062 124.09375 151.636719 128.617188 151.902344 134.742188 C 152.160156 140.714844 156.234375 145.8125 161.875 147.171875 C 165.828125 148.132812 169.660156 147.703125 173.238281 145.765625 C 174.492188 145.085938 175.621094 144.113281 176.660156 143.121094 C 177.839844 141.996094 178.351562 140.621094 178.039062 138.878906 C 177.453125 135.53125 178.085938 132.28125 179.621094 129.292969 C 180.355469 127.863281 180.300781 126.625 179.617188 125.363281 C 179.03125 124.296875 178.378906 123.214844 177.550781 122.34375 C 175.011719 119.683594 171.761719 118.695312 168.160156 118.683594 C 165.210938 118.707031 162.277344 119.457031 159.535156 121.050781 Z M 168.136719 136.304688 C 167.542969 137.304688 166.421875 137.175781 165.960938 136.097656 C 165.488281 134.988281 165.699219 133.917969 166.277344 132.90625 C 166.613281 132.324219 167.167969 131.902344 167.785156 132.203125 C 168.195312 132.398438 168.449219 132.988281 168.679688 133.441406 C 168.789062 133.664062 168.695312 133.984375 168.695312 134.261719 C 168.742188 134.273438 168.792969 134.292969 168.839844 134.304688 C 168.613281 134.972656 168.488281 135.707031 168.136719 136.304688 Z M 168.136719 136.304688 " fill-opacity="1" fill-rule="nonzero"/></svg>